<svg height="480pt" viewBox="0 0 480 480.00076" width="480pt" xmlns="http://www.w3.org/2000/svg"><path d="m16 104h48v32h16v-32h96v32h16v-32h48v48h16v-48h80v40h16v-48c0-4.417969-3.582031-8-8-8h-88v-24c.039062-22.878906-12.15625-44.035156-31.980469-55.460938-19.820312-11.425781-44.238281-11.382812-64.019531.117188-19.777344-11.5-44.199219-11.542969-64.019531-.117188-19.824219 11.425782-32.019531 32.582032-31.980469 55.460938v24h-56c-4.417969 0-8 3.582031-8 8v376c0 4.417969 3.582031 8 8 8h136v-16h-128zm128-16v-24c.011719-13.628906 5.832031-26.605469 16-35.679688 10.171875 9.074219 15.988281 22.050782 16 35.679688v24zm96-24v24h-48v-24c0-16.601562-6.476562-32.546875-18.054688-44.445312 14.792969-6.039063 31.621094-4.308594 44.875 4.613281 13.257813 8.917969 21.199219 23.855469 21.179688 39.832031zm-160 0c-.019531-15.976562 7.921875-30.914062 21.179688-39.832031 13.253906-8.921875 30.082031-10.652344 44.875-4.613281-11.574219 11.898437-18.054688 27.84375-18.054688 44.445312v24h-48zm0 0"/><path d="m472 240h-72v-16c.050781-22.074219-11.304688-42.609375-30.027344-54.304688-18.722656-11.691406-42.15625-12.886718-61.972656-3.160156-19.816406-9.726562-43.25-8.53125-61.972656 3.160156-18.722656 11.695313-30.078125 32.230469-30.027344 54.304688v16h-48c-4.417969 0-8 3.582031-8 8v224c0 4.417969 3.582031 8 8 8h304c4.417969 0 8-3.582031 8-8v-224c0-4.417969-3.582031-8-8-8zm-8 212.6875-24-24v-172.6875h24zm-40-24-24 24v-196.6875h24zm8 14.625 20.6875 20.6875h-41.375zm-96-267.3125c26.5.027344 47.972656 21.503906 48 48v16h-40v-16c-.007812-17.570312-7.265625-34.355469-20.054688-46.398438 3.933594-1.042968 7.984376-1.582031 12.054688-1.601562zm-28 9.089844c12.542969 8.992187 19.988281 23.476562 20 38.910156v16h-40v-16c.015625-15.433594 7.457031-29.917969 20-38.910156zm-76 38.910156c-.054688-14.871094 6.8125-28.921875 18.582031-38.015625 11.769531-9.089844 27.097657-12.191406 41.472657-8.382813-12.789063 12.042969-20.046876 28.828126-20.054688 46.398438v16h-40zm16 240h-72v-208h40v32h16v-32h96v32h16v-32h40v208zm0 0"/><path d="m32 168h16v16h-16zm0 0"/><path d="m32 200h16v96h-16zm0 0"/><path d="m192 304h16v16h-16zm0 0"/><path d="m192 336h16v96h-16zm0 0"/></svg>